<?xml version="1.0" encoding="utf-8"?>
<!-- Generator: Adobe Illustrator 24.1.2, SVG Export Plug-In . SVG Version: 6.00 Build 0)  -->
<svg version="1.1" id="Lager_1" xmlns="http://www.w3.org/2000/svg" xmlns:xlink="http://www.w3.org/1999/xlink" x="0px" y="0px"
	 viewBox="0 0 400 300" style="enable-background:new 0 0 400 300;" xml:space="preserve">
<style type="text/css">
	.st0{fill:#DC3739;}
	.st1{fill:none;stroke:#DC3739;stroke-width:10;stroke-miterlimit:10;}
</style>
<g>
	<path class="st0" d="M39.4,139l13.9-2.7c5.2-1,9.3-0.6,12.5,1.1c3.2,1.8,5.2,4.6,6,8.6c0.6,3,0.3,5.6-0.8,7.9
		c-1.1,2.3-2.8,4.1-5,5.3l0,0.1c2.9,0.3,5.3,1.2,7.1,2.9c1.9,1.7,3.1,4,3.6,6.7c0.9,4.4,0.1,8.1-2.4,11.2c-2.4,3.1-5.9,5.1-10.4,6
		l-14.7,2.9L39.4,139z M51.4,159.4l5-1c2.9-0.6,5-1.8,6.4-3.8c1.4-2,1.8-4.3,1.3-6.9c-0.4-1.9-1.4-3.4-3-4.5c-1.6-1-3.4-1.4-5.4-1
		l-7.4,1.5L51.4,159.4z M55.7,181.3l6.2-1.2c2.9-0.6,4.9-1.7,6.1-3.4c1.2-1.7,1.5-3.8,1.1-6.2c-0.5-2.5-1.8-4.3-3.9-5.4
		c-2.1-1.1-4.7-1.4-7.8-0.7l-4.8,0.9L55.7,181.3z"/>
	<path class="st0" d="M79.9,182l17.9-55.8l36.6,45.9l-7.3,3l-14.1-18l-18.9,3.7l-6.8,22.1L79.9,182z M109.1,151.4l-8.4-11.1
		l-4.4,13.7L109.1,151.4z"/>
	<path class="st0" d="M144.7,170l-7.3,2l-10.2-51.6l39.9,27.7l-6.4-32.6l7.3-2l10.3,52.3l-40-28.2L144.7,170z"/>
	<path class="st0" d="M214,158l-25-21.8l-0.1,0l4.8,24.2l-7.5,2.1l-9.9-50.1l7.5-2.1l4.9,24.7l0.1,0l15.4-29.7l7.1,2.7l-13.5,25.9
		l22.8,19.4L214,158z"/>
	<path class="st0" d="M213.5,104.7l10.8-2.1c5.7-1.1,10.3-0.6,13.8,1.4c3.5,2.1,5.7,5.2,6.5,9.4c0.7,3.4,0.2,6.6-1.4,9.4
		c-1.6,2.8-4.2,4.9-7.7,6.2l19.6,17.5l-6.4,4.6l-22-20.5l-0.1,0L231,153l-7.5,2.1L213.5,104.7z M225.7,125.9l4-0.8
		c2.7-0.5,4.8-1.7,6.2-3.6c1.4-1.9,1.9-4,1.4-6.4c-0.5-2.5-1.8-4.3-3.9-5.5c-2.1-1.1-4.4-1.4-7-0.9l-4,0.8L225.7,125.9z"/>
	<path class="st0" d="M277.5,92.4l7.5-2.1l6.7,34c0.6,3.1,0.6,5.9,0.1,8.4c-0.6,2.5-1.6,4.6-3,6.3c-1.4,1.8-3.2,3.2-5.2,4.2
		c-2,1.1-4.1,1.8-6.4,2.3c-2.3,0.4-4.5,0.6-6.8,0.3c-2.3-0.2-4.4-0.9-6.4-2c-2-1.1-3.7-2.7-5.2-4.7c-1.5-2.1-2.5-4.7-3.1-7.8
		L249.1,98l7.5-2.1l6.3,31.9c0.5,2.4,1.1,4.3,2,5.9c0.9,1.6,1.9,2.8,3,3.6c1.2,0.8,2.4,1.4,3.7,1.5c1.3,0.2,2.7,0.2,4.2-0.1
		c1.5-0.3,2.8-0.8,3.9-1.5c1.1-0.7,2.1-1.6,2.8-2.8c0.7-1.2,1.2-2.7,1.4-4.5c0.2-1.8,0.1-3.8-0.4-6.2L277.5,92.4z"/>
	<path class="st0" d="M303.2,94.1l-14.3,2.8l0.9-7.3l32.5-6.4l1.3,6.8l-12.8,2.5l8.5,43l-7.5,2.1L303.2,94.1z"/>
	<path class="st0" d="M336.6,87.6l-14.3,2.8l0.9-7.3l32.5-6.4l1.3,6.8l-12.8,2.5l8.5,43l-7.5,2.1L336.6,87.6z"/>
</g>
<path class="st1" d="M351.7,155.4l-286.3,57c-25,5-49.3-11.2-54.2-36.2l-2.1-10.4c-5-25,11.2-49.3,36.2-54.2l286.3-57
	c25-5,49.3,11.2,54.2,36.2l2.1,10.4C392.9,126.1,376.7,150.4,351.7,155.4z"/>
</svg>
